<?xml version="1.0" encoding="UTF-8" standalone="no"?>
<svg width="128" height="128" viewBox="0 0 128 128" fill="none" xmlns="http://www.w3.org/2000/svg">
  <!-- Background Circle with Blue Theme -->
  <circle cx="64" cy="64" r="62" fill="#344960" />
  <circle cx="64" cy="64" r="58" fill="#23374D" />
    <!-- Python Elements (Styled like official Python logo) -->
  <g transform="translate(0, 10) scale(0.5)">
    <!-- Blue Snake (adjusted for symmetry) -->
    <path d="M116.5 26.4c-7.7.0-14.3 1.7-19.5 4.2-6 2.9-7.1 9-7.1 16.9v12.4h27.9v3.5H82c-7.5.0-14.1 4.5-16.2 13.1-2.4 9.8-2.5 16 0 26.3 1.8 7.6 6.2 13.1 13.8 13.1h8.9V104c0-8.5 7.4-16.1 16.2-16.1h28.1c7.2.0 13-5.9 13-13.1V47.5c0-7-5.9-12.3-13-13.5-4.5-.7-9.1-1.1-13.9-1.1zm-15.4 9.9a5.1 5.1.0 015.1 5.2 5.1 5.1.0 01-5.1 5.2c-2.8.0-5.1-2.3-5.1-5.2s2.3-5.2 5.1-5.2z" fill="#4584b6"/>
    <!-- Yellow Snake -->
    <path d="M147.1 62.9v11.5c0 8.9-7.5 16.4-16.2 16.4h-28.1c-7.1.0-13 6.1-13 13.2v24.7c0 7 6.1 11.2 13 13.2 8.2 2.4 16.1 2.8 28.1.0a17 17.0 0 0013-13.2v-9.9h-28.1v-3.5H173c7.5.0 10.3-5.2 13-13.1 2.8-8.1 2.6-15.9.0-26.3-1.9-7.5-5.5-13.1-13-13.1h-25.9zm-14.4 62.5a5.1 5.1.0 015.1 5.2c0 2.9-2.3 5.2-5.1 5.2a5.1 5.1.0 01-5.1-5.2c0-2.9 2.3-5.2 5.1-5.2z" fill="#ffde57"/>
  </g>
  
  <!-- Stock Chart Line -->
  <path d="M35.5 45L47.5 37.5L57.5 50L68.75 42.5L80 52.5L92.5 40" stroke="#FFFFFF" stroke-width="2" stroke-linecap="round" stroke-linejoin="round"/>
  
  <!-- Trading Indicators -->
  <polygon points="47.5,32 43,40 52,40" fill="#4CAF50" /> <!-- Green upward arrow -->
  <polygon points="80,58 75.5,50 84.5,50" fill="#F44336" /> <!-- Red downward arrow -->
  
  <!-- Candlestick -->
  <rect x="57.5" y="50" width="2.5" height="6" fill="#4CAF50" /> <!-- Green candle -->
  <line x1="58.75" y1="48" x2="58.75" y2="50" stroke="#4CAF50" stroke-width="1" />
  <line x1="58.75" y1="56" x2="58.75" y2="58" stroke="#4CAF50" stroke-width="1" />
    <rect x="68.75" y="42.5" width="2.5" height="7" fill="#F44336" /> <!-- Red candle -->
  <line x1="70" y1="41" x2="70" y2="42.5" stroke="#F44336" stroke-width="1" />
  <line x1="70" y1="49.5" x2="70" y2="51" stroke="#F44336" stroke-width="1" />
  
  <!-- Circular Border with Indonesian colors -->
  <circle cx="64" cy="64" r="62" stroke="url(#indonesianGradientSmall)" stroke-width="2" fill="none" />
  
  <defs>
    <linearGradient id="indonesianGradientSmall" x1="0%" y1="0%" x2="100%" y2="100%">
      <stop offset="0%" style="stop-color:#FF0000;stop-opacity:1" /> <!-- Red -->
      <stop offset="50%" style="stop-color:#FFFFFF;stop-opacity:1" /> <!-- White -->
      <stop offset="100%" style="stop-color:#FF0000;stop-opacity:1" /> <!-- Red -->
    </linearGradient>
  </defs>
    <!-- Text: PI (for PyIDX) -->
  <text x="64" y="115" font-family="'Source Sans Pro', sans-serif" font-size="28" font-weight="600" text-anchor="middle" fill="#FFFFFF" letter-spacing="0.5">PI</text>
</svg>
